<mxfile host="app.diagrams.net" modified="2023-10-28T18:12:36.117Z" agent="Mozilla/5.0 (Windows NT 10.0; Win64; x64) AppleWebKit/537.36 (KHTML, like Gecko) Chrome/116.0.0.0 Safari/537.36 OPR/102.0.0.0" etag="rUTSb4E1cwD6oCqup5fF" version="22.0.8" type="google">
  <diagram name="PÃ¡gina-1" id="qjvbZgwqb2S1G7D8W_jR">
    <mxGraphModel grid="1" page="1" gridSize="10" guides="1" tooltips="1" connect="1" arrows="1" fold="1" pageScale="1" pageWidth="827" pageHeight="1169" math="0" shadow="0">
      <root>
        <mxCell id="0" />
        <mxCell id="1" parent="0" />
        <mxCell id="MvBeCJ0547UgPJB9h0CU-1" value="BaseGenericaFakeDB&lt;br&gt;&amp;lt;&amp;lt;Abstract&amp;gt;&amp;gt;" style="swimlane;fontStyle=1;align=center;verticalAlign=top;childLayout=stackLayout;horizontal=1;startSize=40;horizontalStack=0;resizeParent=1;resizeParentMax=0;resizeLast=0;collapsible=1;marginBottom=0;whiteSpace=wrap;html=1;" vertex="1" parent="1">
          <mxGeometry x="314" y="320" width="200" height="140" as="geometry" />
        </mxCell>
        <mxCell id="MvBeCJ0547UgPJB9h0CU-2" value="+ tabela: ArrayList&lt;br&gt;+ carregarDados: void" style="text;strokeColor=none;fillColor=none;align=left;verticalAlign=top;spacingLeft=4;spacingRight=4;overflow=hidden;rotatable=0;points=[[0,0.5],[1,0.5]];portConstraint=eastwest;whiteSpace=wrap;html=1;" vertex="1" parent="MvBeCJ0547UgPJB9h0CU-1">
          <mxGeometry y="40" width="200" height="50" as="geometry" />
        </mxCell>
        <mxCell id="MvBeCJ0547UgPJB9h0CU-3" value="" style="line;strokeWidth=1;fillColor=none;align=left;verticalAlign=middle;spacingTop=-1;spacingLeft=3;spacingRight=3;rotatable=0;labelPosition=right;points=[];portConstraint=eastwest;strokeColor=inherit;" vertex="1" parent="MvBeCJ0547UgPJB9h0CU-1">
          <mxGeometry y="90" width="200" height="8" as="geometry" />
        </mxCell>
        <mxCell id="MvBeCJ0547UgPJB9h0CU-4" value="+ BaseGenericaFakeDB(arraylist..., void...)" style="text;strokeColor=none;fillColor=none;align=left;verticalAlign=top;spacingLeft=4;spacingRight=4;overflow=hidden;rotatable=0;points=[[0,0.5],[1,0.5]];portConstraint=eastwest;whiteSpace=wrap;html=1;" vertex="1" parent="MvBeCJ0547UgPJB9h0CU-1">
          <mxGeometry y="98" width="200" height="42" as="geometry" />
        </mxCell>
        <mxCell id="MvBeCJ0547UgPJB9h0CU-34" value="" style="edgeStyle=orthogonalEdgeStyle;rounded=0;orthogonalLoop=1;jettySize=auto;html=1;entryX=0.5;entryY=1;entryDx=0;entryDy=0;entryPerimeter=0;" edge="1" parent="1" target="MvBeCJ0547UgPJB9h0CU-4">
          <mxGeometry relative="1" as="geometry">
            <mxPoint x="414" y="570" as="sourcePoint" />
          </mxGeometry>
        </mxCell>
        <mxCell id="MvBeCJ0547UgPJB9h0CU-30" value="" style="edgeStyle=orthogonalEdgeStyle;rounded=0;orthogonalLoop=1;jettySize=auto;html=1;" edge="1" parent="1" target="MvBeCJ0547UgPJB9h0CU-2">
          <mxGeometry relative="1" as="geometry">
            <Array as="points">
              <mxPoint x="280" y="445" />
              <mxPoint x="280" y="385" />
            </Array>
            <mxPoint x="240" y="445" as="sourcePoint" />
          </mxGeometry>
        </mxCell>
        <mxCell id="MvBeCJ0547UgPJB9h0CU-31" value="" style="edgeStyle=orthogonalEdgeStyle;rounded=0;orthogonalLoop=1;jettySize=auto;html=1;entryX=1;entryY=0.5;entryDx=0;entryDy=0;" edge="1" parent="1" target="MvBeCJ0547UgPJB9h0CU-2">
          <mxGeometry relative="1" as="geometry">
            <mxPoint x="600" y="445" as="sourcePoint" />
            <Array as="points">
              <mxPoint x="560" y="445" />
              <mxPoint x="560" y="385" />
            </Array>
          </mxGeometry>
        </mxCell>
        <mxCell id="MvBeCJ0547UgPJB9h0CU-32" value="" style="edgeStyle=orthogonalEdgeStyle;rounded=0;orthogonalLoop=1;jettySize=auto;html=1;entryX=1;entryY=0.5;entryDx=0;entryDy=0;" edge="1" parent="1" target="MvBeCJ0547UgPJB9h0CU-2">
          <mxGeometry relative="1" as="geometry">
            <mxPoint x="600" y="239" as="sourcePoint" />
            <Array as="points">
              <mxPoint x="560" y="239" />
              <mxPoint x="560" y="385" />
            </Array>
          </mxGeometry>
        </mxCell>
        <mxCell id="MvBeCJ0547UgPJB9h0CU-33" value="" style="edgeStyle=orthogonalEdgeStyle;rounded=0;orthogonalLoop=1;jettySize=auto;html=1;entryX=0;entryY=0.5;entryDx=0;entryDy=0;exitX=1;exitY=0.5;exitDx=0;exitDy=0;" edge="1" parent="1" target="MvBeCJ0547UgPJB9h0CU-2" source="3ZWpRwnYJZVfAZfOWV91-12">
          <mxGeometry relative="1" as="geometry">
            <Array as="points">
              <mxPoint x="230" y="239" />
              <mxPoint x="280" y="239" />
              <mxPoint x="280" y="385" />
            </Array>
            <mxPoint x="220" y="239" as="sourcePoint" />
          </mxGeometry>
        </mxCell>
        <mxCell id="MvBeCJ0547UgPJB9h0CU-37" value="" style="edgeStyle=orthogonalEdgeStyle;rounded=0;orthogonalLoop=1;jettySize=auto;html=1;exitX=0.495;exitY=1.095;exitDx=0;exitDy=0;exitPerimeter=0;entryX=0.5;entryY=0;entryDx=0;entryDy=0;" edge="1" parent="1" source="3ZWpRwnYJZVfAZfOWV91-9" target="MvBeCJ0547UgPJB9h0CU-1">
          <mxGeometry relative="1" as="geometry">
            <Array as="points">
              <mxPoint x="414" y="234" />
            </Array>
            <mxPoint x="414" y="220.00400000000002" as="sourcePoint" />
          </mxGeometry>
        </mxCell>
        <mxCell id="MrVsa60HbV9OtTXTAltd-1" value="AlunoFakeDB" style="swimlane;fontStyle=1;align=center;verticalAlign=top;childLayout=stackLayout;horizontal=1;startSize=26;horizontalStack=0;resizeParent=1;resizeParentMax=0;resizeLast=0;collapsible=1;marginBottom=0;whiteSpace=wrap;html=1;" vertex="1" parent="1">
          <mxGeometry x="600" y="200" width="170" height="124" as="geometry" />
        </mxCell>
        <mxCell id="MrVsa60HbV9OtTXTAltd-2" value="+ allan: Aluno&lt;br&gt;+ breno: Aluno&lt;br&gt;+ jose: Aluno&lt;br&gt;+ chaves: Aluno" style="text;strokeColor=none;fillColor=none;align=left;verticalAlign=top;spacingLeft=4;spacingRight=4;overflow=hidden;rotatable=0;points=[[0,0.5],[1,0.5]];portConstraint=eastwest;whiteSpace=wrap;html=1;" vertex="1" parent="MrVsa60HbV9OtTXTAltd-1">
          <mxGeometry y="26" width="170" height="64" as="geometry" />
        </mxCell>
        <mxCell id="MrVsa60HbV9OtTXTAltd-3" value="" style="line;strokeWidth=1;fillColor=none;align=left;verticalAlign=middle;spacingTop=-1;spacingLeft=3;spacingRight=3;rotatable=0;labelPosition=right;points=[];portConstraint=eastwest;strokeColor=inherit;" vertex="1" parent="MrVsa60HbV9OtTXTAltd-1">
          <mxGeometry y="90" width="170" height="8" as="geometry" />
        </mxCell>
        <mxCell id="MrVsa60HbV9OtTXTAltd-4" value="+ AlunoFakeDB(aluno...)" style="text;strokeColor=none;fillColor=none;align=left;verticalAlign=top;spacingLeft=4;spacingRight=4;overflow=hidden;rotatable=0;points=[[0,0.5],[1,0.5]];portConstraint=eastwest;whiteSpace=wrap;html=1;" vertex="1" parent="MrVsa60HbV9OtTXTAltd-1">
          <mxGeometry y="98" width="170" height="26" as="geometry" />
        </mxCell>
        <mxCell id="MrVsa60HbV9OtTXTAltd-5" value="ProfessorFakeDB" style="swimlane;fontStyle=1;align=center;verticalAlign=top;childLayout=stackLayout;horizontal=1;startSize=26;horizontalStack=0;resizeParent=1;resizeParentMax=0;resizeLast=0;collapsible=1;marginBottom=0;whiteSpace=wrap;html=1;" vertex="1" parent="1">
          <mxGeometry x="600" y="406" width="190" height="134" as="geometry" />
        </mxCell>
        <mxCell id="MrVsa60HbV9OtTXTAltd-6" value="+ luizao: Professor&lt;br&gt;+ noiza: Professor&lt;br&gt;+ oswaldo: Professor&lt;br&gt;+ paulo: Professor" style="text;strokeColor=none;fillColor=none;align=left;verticalAlign=top;spacingLeft=4;spacingRight=4;overflow=hidden;rotatable=0;points=[[0,0.5],[1,0.5]];portConstraint=eastwest;whiteSpace=wrap;html=1;" vertex="1" parent="MrVsa60HbV9OtTXTAltd-5">
          <mxGeometry y="26" width="190" height="74" as="geometry" />
        </mxCell>
        <mxCell id="MrVsa60HbV9OtTXTAltd-7" value="" style="line;strokeWidth=1;fillColor=none;align=left;verticalAlign=middle;spacingTop=-1;spacingLeft=3;spacingRight=3;rotatable=0;labelPosition=right;points=[];portConstraint=eastwest;strokeColor=inherit;" vertex="1" parent="MrVsa60HbV9OtTXTAltd-5">
          <mxGeometry y="100" width="190" height="8" as="geometry" />
        </mxCell>
        <mxCell id="MrVsa60HbV9OtTXTAltd-8" value="+ ProfessorFakeDB(professor...)" style="text;strokeColor=none;fillColor=none;align=left;verticalAlign=top;spacingLeft=4;spacingRight=4;overflow=hidden;rotatable=0;points=[[0,0.5],[1,0.5]];portConstraint=eastwest;whiteSpace=wrap;html=1;" vertex="1" parent="MrVsa60HbV9OtTXTAltd-5">
          <mxGeometry y="108" width="190" height="26" as="geometry" />
        </mxCell>
        <mxCell id="3ZWpRwnYJZVfAZfOWV91-6" value="TurmaFakeDB" style="swimlane;fontStyle=1;align=center;verticalAlign=top;childLayout=stackLayout;horizontal=1;startSize=26;horizontalStack=0;resizeParent=1;resizeParentMax=0;resizeLast=0;collapsible=1;marginBottom=0;whiteSpace=wrap;html=1;" vertex="1" parent="1">
          <mxGeometry x="309" y="60" width="210" height="170" as="geometry" />
        </mxCell>
        <mxCell id="3ZWpRwnYJZVfAZfOWV91-7" value="+ disciplinaDB: DIsciplinaFakeDB&lt;br&gt;+ professorDB: ProfessorFakeDB&lt;br&gt;+ dez: Turma&lt;br&gt;+ onze: Turma&lt;br&gt;+ doze: Turma&lt;br&gt;+ treze: Turma" style="text;strokeColor=none;fillColor=none;align=left;verticalAlign=top;spacingLeft=4;spacingRight=4;overflow=hidden;rotatable=0;points=[[0,0.5],[1,0.5]];portConstraint=eastwest;whiteSpace=wrap;html=1;" vertex="1" parent="3ZWpRwnYJZVfAZfOWV91-6">
          <mxGeometry y="26" width="210" height="94" as="geometry" />
        </mxCell>
        <mxCell id="3ZWpRwnYJZVfAZfOWV91-8" value="" style="line;strokeWidth=1;fillColor=none;align=left;verticalAlign=middle;spacingTop=-1;spacingLeft=3;spacingRight=3;rotatable=0;labelPosition=right;points=[];portConstraint=eastwest;strokeColor=inherit;" vertex="1" parent="3ZWpRwnYJZVfAZfOWV91-6">
          <mxGeometry y="120" width="210" height="8" as="geometry" />
        </mxCell>
        <mxCell id="3ZWpRwnYJZVfAZfOWV91-9" value="+ TurmaFakeDB(disciplinafakedb..., professorfakedb..., turma...)" style="text;strokeColor=none;fillColor=none;align=left;verticalAlign=top;spacingLeft=4;spacingRight=4;overflow=hidden;rotatable=0;points=[[0,0.5],[1,0.5]];portConstraint=eastwest;whiteSpace=wrap;html=1;" vertex="1" parent="3ZWpRwnYJZVfAZfOWV91-6">
          <mxGeometry y="128" width="210" height="42" as="geometry" />
        </mxCell>
        <mxCell id="3ZWpRwnYJZVfAZfOWV91-11" value="TrabalhoFakeDB" style="swimlane;fontStyle=1;align=center;verticalAlign=top;childLayout=stackLayout;horizontal=1;startSize=26;horizontalStack=0;resizeParent=1;resizeParentMax=0;resizeLast=0;collapsible=1;marginBottom=0;whiteSpace=wrap;html=1;" vertex="1" parent="1">
          <mxGeometry x="10" y="170" width="220" height="170" as="geometry" />
        </mxCell>
        <mxCell id="3ZWpRwnYJZVfAZfOWV91-12" value="+ disciplinaDB: DisciplinaFakeDB&lt;br&gt;+ trabLP: Trabalho&lt;br&gt;+ trabMat: Trabalho&lt;br&gt;+ trabHist: Trabalho&lt;br&gt;+ trabGeo: Trabalho" style="text;strokeColor=none;fillColor=none;align=left;verticalAlign=top;spacingLeft=4;spacingRight=4;overflow=hidden;rotatable=0;points=[[0,0.5],[1,0.5]];portConstraint=eastwest;whiteSpace=wrap;html=1;" vertex="1" parent="3ZWpRwnYJZVfAZfOWV91-11">
          <mxGeometry y="26" width="220" height="84" as="geometry" />
        </mxCell>
        <mxCell id="3ZWpRwnYJZVfAZfOWV91-13" value="" style="line;strokeWidth=1;fillColor=none;align=left;verticalAlign=middle;spacingTop=-1;spacingLeft=3;spacingRight=3;rotatable=0;labelPosition=right;points=[];portConstraint=eastwest;strokeColor=inherit;" vertex="1" parent="3ZWpRwnYJZVfAZfOWV91-11">
          <mxGeometry y="110" width="220" height="8" as="geometry" />
        </mxCell>
        <mxCell id="3ZWpRwnYJZVfAZfOWV91-14" value="+ TrabalhoFakeDB(disciplinafakedb..., trabalho...)" style="text;strokeColor=none;fillColor=none;align=left;verticalAlign=top;spacingLeft=4;spacingRight=4;overflow=hidden;rotatable=0;points=[[0,0.5],[1,0.5]];portConstraint=eastwest;whiteSpace=wrap;html=1;" vertex="1" parent="3ZWpRwnYJZVfAZfOWV91-11">
          <mxGeometry y="118" width="220" height="52" as="geometry" />
        </mxCell>
        <mxCell id="3ZWpRwnYJZVfAZfOWV91-15" value="NotaTrabalhoFakeDB" style="swimlane;fontStyle=1;align=center;verticalAlign=top;childLayout=stackLayout;horizontal=1;startSize=26;horizontalStack=0;resizeParent=1;resizeParentMax=0;resizeLast=0;collapsible=1;marginBottom=0;whiteSpace=wrap;html=1;" vertex="1" parent="1">
          <mxGeometry x="10" y="380" width="230" height="350" as="geometry" />
        </mxCell>
        <mxCell id="3ZWpRwnYJZVfAZfOWV91-16" value="+ alunoDB: AlunoFakedb&lt;br&gt;+ trabalhoDB: TrabalhoFakeDB&lt;br&gt;+ allan1: NotaTrabalho&lt;br&gt;+ allan2: NotaTrabalho&lt;br&gt;+ allan3: NotaTrabalho&lt;br&gt;+ allan4: NotaTrabalho&lt;br&gt;+ breno1: NotaTrabalho&lt;br&gt;+ breno2: NotaTrabalho&lt;br&gt;+ breno3: NotaTrabalho&lt;br&gt;+ breno4: NotaTrabalho&lt;br&gt;+ jose1: NotaTrabalho&lt;br&gt;+ jose2: NotaTrabalho&lt;br&gt;+ jose3: NotaTrabalho&lt;br&gt;+ jose4: NotaTrabalho&lt;br&gt;+ chaves1: NotaTrabalho&lt;br&gt;+ chaves2: NotaTrabalho&lt;br&gt;+ chaves3: NotaTrabalho&lt;br&gt;+ chaves4: NotaTrabalho" style="text;strokeColor=none;fillColor=none;align=left;verticalAlign=top;spacingLeft=4;spacingRight=4;overflow=hidden;rotatable=0;points=[[0,0.5],[1,0.5]];portConstraint=eastwest;whiteSpace=wrap;html=1;" vertex="1" parent="3ZWpRwnYJZVfAZfOWV91-15">
          <mxGeometry y="26" width="230" height="274" as="geometry" />
        </mxCell>
        <mxCell id="3ZWpRwnYJZVfAZfOWV91-17" value="" style="line;strokeWidth=1;fillColor=none;align=left;verticalAlign=middle;spacingTop=-1;spacingLeft=3;spacingRight=3;rotatable=0;labelPosition=right;points=[];portConstraint=eastwest;strokeColor=inherit;" vertex="1" parent="3ZWpRwnYJZVfAZfOWV91-15">
          <mxGeometry y="300" width="230" height="8" as="geometry" />
        </mxCell>
        <mxCell id="3ZWpRwnYJZVfAZfOWV91-18" value="+ NotaTrabalhoFakeDB(alunofakedb..., trabalhofakedb..., notatrabalho...)" style="text;strokeColor=none;fillColor=none;align=left;verticalAlign=top;spacingLeft=4;spacingRight=4;overflow=hidden;rotatable=0;points=[[0,0.5],[1,0.5]];portConstraint=eastwest;whiteSpace=wrap;html=1;" vertex="1" parent="3ZWpRwnYJZVfAZfOWV91-15">
          <mxGeometry y="308" width="230" height="42" as="geometry" />
        </mxCell>
        <mxCell id="3ZWpRwnYJZVfAZfOWV91-19" value="RendimentoEscolarFakeDB" style="swimlane;fontStyle=1;align=center;verticalAlign=top;childLayout=stackLayout;horizontal=1;startSize=26;horizontalStack=0;resizeParent=1;resizeParentMax=0;resizeLast=0;collapsible=1;marginBottom=0;whiteSpace=wrap;html=1;" vertex="1" parent="1">
          <mxGeometry x="284" y="560" width="260" height="150" as="geometry" />
        </mxCell>
        <mxCell id="3ZWpRwnYJZVfAZfOWV91-20" value="+ alunoDB: AlunoFakeDB&lt;br&gt;+ trabsDB: NotaTrabalhoFakeDB&lt;br&gt;+ turmaDB: TurmaFakeDB" style="text;strokeColor=none;fillColor=none;align=left;verticalAlign=top;spacingLeft=4;spacingRight=4;overflow=hidden;rotatable=0;points=[[0,0.5],[1,0.5]];portConstraint=eastwest;whiteSpace=wrap;html=1;" vertex="1" parent="3ZWpRwnYJZVfAZfOWV91-19">
          <mxGeometry y="26" width="260" height="64" as="geometry" />
        </mxCell>
        <mxCell id="3ZWpRwnYJZVfAZfOWV91-21" value="" style="line;strokeWidth=1;fillColor=none;align=left;verticalAlign=middle;spacingTop=-1;spacingLeft=3;spacingRight=3;rotatable=0;labelPosition=right;points=[];portConstraint=eastwest;strokeColor=inherit;" vertex="1" parent="3ZWpRwnYJZVfAZfOWV91-19">
          <mxGeometry y="90" width="260" height="8" as="geometry" />
        </mxCell>
        <mxCell id="3ZWpRwnYJZVfAZfOWV91-22" value="+ RendiimentoEscolarFakeDB(alunofakedb..., notatrabalhofakedb..., turmafakedb...)" style="text;strokeColor=none;fillColor=none;align=left;verticalAlign=top;spacingLeft=4;spacingRight=4;overflow=hidden;rotatable=0;points=[[0,0.5],[1,0.5]];portConstraint=eastwest;whiteSpace=wrap;html=1;" vertex="1" parent="3ZWpRwnYJZVfAZfOWV91-19">
          <mxGeometry y="98" width="260" height="52" as="geometry" />
        </mxCell>
      </root>
    </mxGraphModel>
  </diagram>
</mxfile>
